<svg xmlns="http://www.w3.org/2000/svg" xmlns:xlink="http://www.w3.org/1999/xlink" width="180" height="50"><defs><path id="a" d="M43.23 49.583a6.68 6.68 0 0 1-4.754-1.969 6.666 6.666 0 0 1-1.97-4.752 6.67 6.67 0 0 1 1.967-4.748 6.68 6.68 0 0 1 4.754-1.97c1.795 0 3.482.697 4.75 1.967 2.62 2.621 2.62 6.886 0 9.506a6.668 6.668 0 0 1-4.748 1.966"/><path id="b" d="M6.723 13.75a6.68 6.68 0 0 1-4.754-1.97A6.672 6.672 0 0 1 0 7.03a6.67 6.67 0 0 1 1.966-4.75A6.683 6.683 0 0 1 6.722.311a6.67 6.67 0 0 1 4.749 1.966 6.677 6.677 0 0 1 1.97 4.753 6.68 6.68 0 0 1-1.97 4.754 6.67 6.67 0 0 1-4.748 1.966"/><path id="c" d="M42.93 13.554c-1.798 0-3.485-.7-4.754-1.97-2.62-2.62-2.621-6.882-.004-9.5A6.68 6.68 0 0 1 42.927.112c1.795 0 3.483.7 4.752 1.968 2.619 2.62 2.619 6.884 0 9.508a6.683 6.683 0 0 1-4.75 1.965"/><path id="d" d="M6.898 49.583a6.69 6.69 0 0 1-4.756-1.969 6.67 6.67 0 0 1-1.966-4.751c0-1.795.7-3.482 1.97-4.751.266-.268.566-.513.947-.77.115-.08.22-.143.33-.21.249-.143.497-.273.728-.379.125-.056.255-.115.391-.166.242-.09.511-.17.82-.243l.17-.047.103-.03 1.496-.101c.19.008.393.032.61.06l.085.012c.05.006.12.011.188.015l.06.005.07.013h.059c.109.004.218.006.326.006 2.58 0 5.124-1.098 6.985-3.012 1.852-1.905 2.872-4.468 2.799-7.033l-.002-.076-.014-.08c-.015-.07-.018-.144-.024-.215a5.265 5.265 0 0 0-.023-.258l-.017-.151c-.015-.13-.03-.255-.038-.385l.115-1.5c.007-.038.02-.073.031-.109l.027-.093c.07-.284.143-.57.25-.845.055-.157.108-.273.166-.391a7.32 7.32 0 0 1 .389-.746c.063-.106.125-.213.198-.317a6.6 6.6 0 0 1 .774-.955 6.676 6.676 0 0 1 4.755-1.967c1.794 0 3.484.697 4.754 1.965 2.617 2.62 2.615 6.885-.006 9.506a6.413 6.413 0 0 1-1.272.972 7.65 7.65 0 0 1-.727.384c-.131.06-.262.12-.39.167a6.35 6.35 0 0 1-.815.241l-.162.045c-.036.01-.072.022-.108.031l-1.51.107a6.203 6.203 0 0 1-.56-.056l-.134-.017a2.036 2.036 0 0 0-.186-.016l-.053-.005-.078-.015h-.06a9.372 9.372 0 0 0-.328-.005c-2.579 0-5.123 1.097-6.982 3.01-1.853 1.907-2.873 4.472-2.8 7.037l.002.076.014.076c.014.073.017.145.023.218.006.086.014.171.024.257.003.05.013.143.025.234.011.103.025.203.025.306v.037l-.108 1.438c-.007.03-.056.196-.07.248-.072.31-.154.585-.246.832-.05.137-.1.256-.16.38-.117.255-.244.5-.387.748-.064.102-.139.222-.215.337-.25.362-.497.667-.763.933a6.666 6.666 0 0 1-4.748 1.968h-.001z"/><path id="e" d="M25.045 49.583a6.68 6.68 0 0 1-4.755-1.97 6.677 6.677 0 0 1-1.968-4.751 6.657 6.657 0 0 1 1.965-4.746c.259-.26.552-.5.955-.778.1-.067.206-.133.319-.197.247-.148.484-.273.73-.387.132-.06.26-.119.39-.167.25-.092.522-.172.81-.236 0 0 .237-.069.267-.076l1.52-.11c.179.007.372.033.574.059l.113.015c.074.007.137.014.2.014.024.002.05.002.074.005l.047.006.064.006c.11.003.224.006.335.006 2.574 0 5.115-1.097 6.97-3.008 1.853-1.904 2.873-4.47 2.8-7.036l-.01-.313-.027-.034c-.002-.011-.002-.023-.002-.035a4.904 4.904 0 0 0-.016-.22l-.025-.216c-.014-.118-.03-.235-.033-.354l.104-1.454c.008-.035.06-.216.073-.27a7.03 7.03 0 0 1 .245-.827c.048-.136.107-.26.166-.39.107-.234.233-.472.387-.735l.03-.048c.051-.088.101-.176.163-.26.275-.402.52-.704.777-.962a6.684 6.684 0 0 1 4.756-1.97c1.795 0 3.481.699 4.75 1.967 2.62 2.62 2.62 6.886 0 9.508a6.83 6.83 0 0 1-.951.77 4.52 4.52 0 0 1-.222.14l-.118.073c-.224.133-.47.26-.707.37-.135.06-.262.119-.395.169a6.72 6.72 0 0 1-.822.241c-.065.016-.118.033-.17.048l-.107.03-1.493.102c-.219-.009-.455-.041-.684-.071-.078-.01-.139-.013-.198-.016-.023-.001-.046-.001-.069-.004l-.127-.014a8.64 8.64 0 0 0-.332-.006c-2.576 0-5.117 1.097-6.975 3.008-1.85 1.907-2.87 4.47-2.795 7.038l.002.075.015.074c.014.076.017.154.023.23.004.08.01.156.02.232.004.064.014.145.022.224.014.114.027.228.03.342l-.11 1.474a13.85 13.85 0 0 1-.066.231 6.841 6.841 0 0 1-.246.844c-.045.121-.098.237-.152.36l-.02.042a7.32 7.32 0 0 1-.375.71 7.287 7.287 0 0 1-.208.333 6.844 6.844 0 0 1-.777.954 6.657 6.657 0 0 1-4.74 1.96"/><path id="f" d="M6.9 31.439a6.678 6.678 0 0 1-4.752-1.967 6.687 6.687 0 0 1-1.97-4.754 6.652 6.652 0 0 1 1.964-4.747 6.686 6.686 0 0 1 1.284-.982 7.804 7.804 0 0 1 1.119-.549c.247-.09.52-.17.804-.234l.17-.048c.032-.01.062-.02.094-.027l1.52-.11c.198.009.412.037.635.067l.047.007a3.511 3.511 0 0 0 .265.018l.066.012.061.002c.113.003.224.005.336.005 2.573 0 5.114-1.096 6.97-3.008 1.852-1.907 2.87-4.472 2.797-7.038l-.002-.074-.015-.073c-.016-.081-.018-.163-.023-.247a4.463 4.463 0 0 0-.015-.206l-.023-.207a3.604 3.604 0 0 1-.034-.373l.1-1.411.01-.033v-.027c.008-.033.063-.22.063-.22.086-.361.162-.623.247-.853.048-.127.107-.254.168-.385.109-.241.237-.486.385-.735l.023-.038c.058-.098.116-.194.18-.291a6.54 6.54 0 0 1 .768-.943A6.682 6.682 0 0 1 24.898 0c1.795 0 3.482.7 4.752 1.968 2.62 2.62 2.617 6.885-.003 9.505a6.405 6.405 0 0 1-1.23.946l-.05.029a7.686 7.686 0 0 1-1.11.547 6.55 6.55 0 0 1-.82.243 5.434 5.434 0 0 0-.178.048l-.106.029-1.49.104a7.881 7.881 0 0 1-.601-.061l-.092-.012c-.069-.008-.132-.01-.194-.015-.025-.001-.05-.001-.074-.006l-.05-.006-.066-.005a8.65 8.65 0 0 0-.333-.006c-2.574 0-5.115 1.096-6.972 3.007-1.852 1.905-2.872 4.472-2.8 7.039l.003.075.013.074c.016.075.019.153.024.229a8.756 8.756 0 0 0 .045.457c.012.112.027.223.029.334l-.107 1.465c-.009.037-.02.076-.032.116l-.038.13a6.677 6.677 0 0 1-.244.843c-.048.128-.11.259-.17.393a7.34 7.34 0 0 1-.381.724c-.07.116-.135.226-.204.329-.276.4-.514.693-.773.95A6.67 6.67 0 0 1 6.9 31.44"/><path id="g" d="M62.942 22.226h-3.87V19.4h11.286v2.826h-3.852V32h-3.564v-9.774zm18.864 7.02V32H71.69V19.4h9.882v2.754h-6.354v2.124h5.598v2.664h-5.598v2.304h6.588zm8.262 3.006c-1.32 0-2.505-.279-3.555-.837a6.259 6.259 0 0 1-2.475-2.331c-.6-.996-.9-2.124-.9-3.384 0-1.26.3-2.388.9-3.384a6.259 6.259 0 0 1 2.475-2.331c1.05-.558 2.235-.837 3.555-.837 1.152 0 2.19.204 3.114.612a5.991 5.991 0 0 1 2.304 1.764l-2.268 2.052c-.816-.984-1.806-1.476-2.97-1.476-.684 0-1.293.15-1.827.45-.534.3-.948.723-1.242 1.269-.294.546-.441 1.173-.441 1.881s.147 1.335.441 1.881c.294.546.708.969 1.242 1.269.534.3 1.143.45 1.827.45 1.164 0 2.154-.492 2.97-1.476l2.268 2.052a5.991 5.991 0 0 1-2.304 1.764c-.924.408-1.962.612-3.114.612zm18.99-12.852V32h-3.564v-4.914h-4.86V32H97.07V19.4h3.564v4.734h4.86V19.4h3.564zm11.88 6.048c.696.228 1.248.609 1.656 1.143.408.534.612 1.197.612 1.989 0 1.092-.42 1.935-1.26 2.529-.84.594-2.064.891-3.672.891h-6.264V19.4h5.904c1.488 0 2.634.291 3.438.873.804.582 1.206 1.383 1.206 2.403 0 .624-.144 1.176-.432 1.656-.288.48-.684.852-1.188 1.116zm-6.588-4.212v3.474h3.312c.816 0 1.443-.147 1.881-.441.438-.294.657-.723.657-1.287 0-.576-.219-1.011-.657-1.305-.438-.294-1.065-.441-1.881-.441h-3.312zm3.78 8.928c1.812 0 2.718-.606 2.718-1.818 0-1.212-.906-1.818-2.718-1.818h-3.78v3.636h3.78zM133.952 32l-2.574-3.69c-.108.012-.27.018-.486.018h-2.844V32h-2.34V19.4h5.184c1.092 0 2.043.18 2.853.54.81.36 1.431.876 1.863 1.548.432.672.648 1.47.648 2.394 0 .948-.231 1.764-.693 2.448-.462.684-1.125 1.194-1.989 1.53l2.898 4.14h-2.52zm-.054-8.118c0-.804-.264-1.422-.792-1.854-.528-.432-1.302-.648-2.322-.648h-2.736v5.022h2.736c1.02 0 1.794-.219 2.322-.657.528-.438.792-1.059.792-1.863zm13.14 5.202h-6.3L139.496 32h-2.412l5.67-12.6h2.304l5.688 12.6h-2.448l-1.26-2.916zm-.774-1.836l-2.376-5.508-2.358 5.508h4.734zm17.28-7.848V32h-1.926l-6.948-8.532V32h-2.322V19.4h1.926l6.948 8.532V19.4h2.322zm3.384 0h5.508c1.344 0 2.538.261 3.582.783s1.854 1.26 2.43 2.214c.576.954.864 2.055.864 3.303 0 1.248-.288 2.349-.864 3.303-.576.954-1.386 1.692-2.43 2.214-1.044.522-2.238.783-3.582.783h-5.508V19.4zm5.4 10.62c.924 0 1.737-.177 2.439-.531a3.799 3.799 0 0 0 1.62-1.512c.378-.654.567-1.413.567-2.277 0-.864-.189-1.623-.567-2.277a3.799 3.799 0 0 0-1.62-1.512c-.702-.354-1.515-.531-2.439-.531h-3.06v8.64h3.06z"/></defs><g fill="none" fill-rule="evenodd" opacity=".8"><use fill="#07155A" xlink:href="#a"/><use fill="#06163A" xlink:href="#a"/><use fill="#07155A" xlink:href="#b"/><use fill="#06163A" xlink:href="#b"/><use fill="#07155A" xlink:href="#c"/><use fill="#06163A" xlink:href="#c"/><use fill="#07155A" xlink:href="#d"/><use fill="#06163A" xlink:href="#d"/><g><use fill="#07155A" xlink:href="#e"/><use fill="#06163A" xlink:href="#e"/></g><g><use fill="#07155A" xlink:href="#f"/><use fill="#06163A" xlink:href="#f"/></g><g><use fill="#07155A" xlink:href="#g"/><use fill="#06163A" xlink:href="#g"/></g></g></svg>