<svg xmlns="http://www.w3.org/2000/svg" xmlns:xlink="http://www.w3.org/1999/xlink" width="151" height="50"><defs><path id="a" d="M47.291 13.783s2.842.414 2.235 2.209c-.531 1.574-.812 5.74-12.495 6.625-11.682.882-17.473 5.631-18.387 12.586-.914 6.958 5 11.627 11.513 12.148l.167.013c1.174.085 1.275 1.77.116 1.98-3.858.704-8.656.828-13.828-.778C4.89 44.923 1.15 36.784 1.89 27.586c0 0-1.096 1.427-1.632 3.544 0 0-1.128-7.374 2.573-12.45 0 0-1.62 1-2.573 2.5 0 0 1.22-5.852 6.602-9.715 5.385-3.867 12.2-5.096 12.2-5.096s.281-3.582 4.96-5.983a.474.474 0 0 1 .68.484c-.215 1.674.289 4.338 1.969 5.624 0 0 6.4.33 9.243 2.871 2.845 2.54 11.378 4.417 11.378 4.417zm.419 1.147l-.889-.085c.066.309.16.987.745 1.38.19.127.599.253.94.241.136-.27.2-.507.253-.673.211-.658-1.05-.863-1.05-.863zm-12.424 3.507c-3.534-.897-13.506-1.858-18.442 2.787-.244.23-.47.477-.687.733-1.733 1.82-3.47 4.653-4.223 8.994 0 0 .588-1.01 1.585-2.254-.441 4.421.972 9.214 3.997 11.743.005.004-1.492-2.293-.706-6.453 1.302-6.885 6.705-11.702 18.388-12.585 4.262-.323 6.992-.58 8.776-1.496-.018.003-5.674-.704-8.688-1.47z"/><path id="b" d="M24.455 1.301l-7.28 14h-5.06l-.8-7.38-3.84 7.38h-5.06l-1.68-14h4.66l.9 7.98 4.16-7.98h4.34l.8 8.1 4.22-8.1h4.64zm5.92 14.32c-1.427 0-2.677-.263-3.75-.79s-1.9-1.263-2.48-2.21c-.58-.947-.87-2.033-.87-3.26 0-1.627.377-3.077 1.13-4.35.753-1.273 1.8-2.263 3.14-2.97 1.34-.707 2.857-1.06 4.55-1.06 1.427 0 2.677.263 3.75.79s1.9 1.263 2.48 2.21c.58.947.87 2.033.87 3.26 0 1.627-.377 3.077-1.13 4.35-.753 1.273-1.8 2.263-3.14 2.97-1.34.707-2.857 1.06-4.55 1.06zm.4-3.82c.747 0 1.397-.193 1.95-.58a3.714 3.714 0 0 0 1.27-1.56 5.17 5.17 0 0 0 .44-2.14c0-.827-.243-1.487-.73-1.98-.487-.493-1.157-.74-2.01-.74-.747 0-1.397.193-1.95.58a3.714 3.714 0 0 0-1.27 1.56 5.164 5.164 0 0 0-.44 2.14c0 .827.243 1.487.73 1.98.487.493 1.157.74 2.01.74zm11.48-10.5h4.72l-2.06 10.34h6.32l-.74 3.66h-11.04l2.8-14zm26.4 0l-8.72 14h-4.64l-3.12-14h4.84l1.74 8.16 5.06-8.16h4.84zm4.38 3.56l-.32 1.64h5.92l-.68 3.4h-5.94l-.36 1.84h7.02l-.72 3.56h-11.64l2.8-14h11.38l-.72 3.56h-6.74zm12.3 10.76c-1.213 0-2.353-.13-3.42-.39-1.067-.26-1.947-.603-2.64-1.03l1.82-3.48c1.507.867 3.08 1.3 4.72 1.3.6 0 1.06-.073 1.38-.22.32-.147.48-.347.48-.6 0-.24-.163-.433-.49-.58-.327-.147-.843-.307-1.55-.48-.933-.24-1.707-.483-2.32-.73a4.293 4.293 0 0 1-1.61-1.14c-.46-.513-.69-1.19-.69-2.03 0-1.053.283-1.977.85-2.77.567-.793 1.383-1.407 2.45-1.84 1.067-.433 2.327-.65 3.78-.65 1.04 0 2.01.103 2.91.31.9.207 1.677.503 2.33.89l-1.7 3.44a6.383 6.383 0 0 0-1.81-.78 7.958 7.958 0 0 0-2.03-.26c-.653 0-1.16.093-1.52.28-.36.187-.54.407-.54.66 0 .253.163.453.49.6.327.147.863.307 1.61.48.907.213 1.67.44 2.29.68.62.24 1.157.613 1.61 1.12.453.507.68 1.173.68 2 0 1.04-.287 1.953-.86 2.74-.573.787-1.393 1.397-2.46 1.83-1.067.433-2.32.65-3.76.65z"/><path id="c" d="M3.82 21c.607 0 1.135.1 1.585.3.45.2.795.487 1.035.86.24.373.36.817.36 1.33 0 .507-.12.948-.36 1.325s-.585.665-1.035.865c-.45.2-.978.3-1.585.3H2.24V28H.94v-7h2.88zm-.06 3.88c.567 0 .997-.12 1.29-.36.293-.24.44-.583.44-1.03 0-.447-.147-.79-.44-1.03-.293-.24-.723-.36-1.29-.36H2.24v2.78h1.52zm8.98 1.5h-3.5L8.55 28H7.21l3.15-7h1.28l3.16 7h-1.36l-.7-1.62zm-.43-1.02l-1.32-3.06-1.31 3.06h2.63zM20.27 28l-1.43-2.05c-.06.007-.15.01-.27.01h-1.58V28h-1.3v-7h2.88c.607 0 1.135.1 1.585.3.45.2.795.487 1.035.86.24.373.36.817.36 1.33 0 .527-.128.98-.385 1.36-.257.38-.625.663-1.105.85l1.61 2.3h-1.4zm-.03-4.51c0-.447-.147-.79-.44-1.03-.293-.24-.723-.36-1.29-.36h-1.52v2.79h1.52c.567 0 .997-.122 1.29-.365.293-.243.44-.588.44-1.035zm4.18-1.39H22.1V21h5.94v1.1h-2.32V28h-1.3v-5.9zM35.24 21v7h-1.07l-3.86-4.74V28h-1.29v-7h1.07l3.86 4.74V21h1.29zm7.13 5.91V28h-5.25v-7h5.11v1.09h-3.81v1.82h3.38v1.07h-3.38v1.93h3.95zM48.4 28l-1.43-2.05c-.06.007-.15.01-.27.01h-1.58V28h-1.3v-7h2.88c.607 0 1.135.1 1.585.3.45.2.795.487 1.035.86.24.373.36.817.36 1.33 0 .527-.128.98-.385 1.36-.257.38-.625.663-1.105.85L49.8 28h-1.4zm-.03-4.51c0-.447-.147-.79-.44-1.03-.293-.24-.723-.36-1.29-.36h-1.52v2.79h1.52c.567 0 .997-.122 1.29-.365.293-.243.44-.588.44-1.035zm4.93 4.61a5.34 5.34 0 0 1-1.565-.23c-.503-.153-.902-.357-1.195-.61l.45-1.01a3.53 3.53 0 0 0 1.055.555c.417.143.835.215 1.255.215.52 0 .908-.083 1.165-.25.257-.167.385-.387.385-.66a.64.64 0 0 0-.215-.495 1.51 1.51 0 0 0-.545-.305 12.15 12.15 0 0 0-.9-.25 10.491 10.491 0 0 1-1.295-.38 2.131 2.131 0 0 1-.85-.595c-.237-.27-.355-.635-.355-1.095 0-.387.105-.738.315-1.055.21-.317.527-.568.95-.755.423-.187.942-.28 1.555-.28.427 0 .847.053 1.26.16.413.107.77.26 1.07.46l-.41 1.01a4.045 4.045 0 0 0-.96-.41 3.591 3.591 0 0 0-.97-.14c-.513 0-.895.087-1.145.26-.25.173-.375.403-.375.69 0 .2.072.363.215.49.143.127.325.227.545.3.22.073.52.157.9.25.52.12.947.245 1.28.375.333.13.618.328.855.595.237.267.355.627.355 1.08 0 .387-.105.737-.315 1.05-.21.313-.528.563-.955.75-.427.187-.947.28-1.56.28zm12.13.01l-.88-.85c-.653.56-1.437.84-2.35.84-.487 0-.923-.08-1.31-.24a2.174 2.174 0 0 1-.91-.665 1.532 1.532 0 0 1-.33-.965c0-.433.127-.815.38-1.145.253-.33.667-.655 1.24-.975-.28-.28-.48-.542-.6-.785a1.688 1.688 0 0 1-.18-.755c0-.493.185-.892.555-1.195.37-.303.862-.455 1.475-.455.567 0 1.02.138 1.36.415.34.277.51.652.51 1.125 0 .36-.112.68-.335.96-.223.28-.588.563-1.095.85l1.51 1.44a4.6 4.6 0 0 0 .39-1.18l1.01.33c-.133.62-.343 1.153-.63 1.6l.88.84-.69.81zm-2.91-6.3c-.273 0-.49.068-.65.205a.67.67 0 0 0-.24.535c0 .16.043.312.13.455.087.143.253.338.5.585.4-.22.678-.412.835-.575a.76.76 0 0 0 .235-.535.605.605 0 0 0-.215-.49c-.143-.12-.342-.18-.595-.18zm-.23 5.27c.58 0 1.087-.177 1.52-.53l-1.85-1.77c-.4.22-.682.432-.845.635a1.066 1.066 0 0 0-.245.685c0 .293.13.53.39.71.26.18.603.27 1.03.27zm10.95 1.02a3.942 3.942 0 0 1-1.915-.465 3.428 3.428 0 0 1-1.34-1.285 3.565 3.565 0 0 1-.485-1.85c0-.687.163-1.303.49-1.85a3.464 3.464 0 0 1 1.345-1.285 3.942 3.942 0 0 1 1.915-.465c.573 0 1.097.1 1.57.3.473.2.873.49 1.2.87l-.84.79a2.45 2.45 0 0 0-1.87-.82c-.48 0-.91.105-1.29.315a2.27 2.27 0 0 0-.89.875c-.213.373-.32.797-.32 1.27s.107.897.32 1.27c.213.373.51.665.89.875.38.21.81.315 1.29.315.74 0 1.363-.277 1.87-.83l.84.8c-.327.38-.728.67-1.205.87-.477.2-1.002.3-1.575.3zm7.3 0c-.713 0-1.357-.155-1.93-.465a3.444 3.444 0 0 1-1.35-1.29 3.544 3.544 0 0 1-.49-1.845c0-.68.163-1.295.49-1.845.327-.55.777-.98 1.35-1.29.573-.31 1.217-.465 1.93-.465.713 0 1.357.155 1.93.465.573.31 1.023.738 1.35 1.285.327.547.49 1.163.49 1.85s-.163 1.303-.49 1.85a3.455 3.455 0 0 1-1.35 1.285c-.573.31-1.217.465-1.93.465zm0-1.14c.467 0 .887-.105 1.26-.315.373-.21.667-.503.88-.88.213-.377.32-.798.32-1.265 0-.467-.107-.888-.32-1.265a2.278 2.278 0 0 0-.88-.88 2.525 2.525 0 0 0-1.26-.315c-.467 0-.887.105-1.26.315-.373.21-.667.503-.88.88-.213.377-.32.798-.32 1.265 0 .467.107.888.32 1.265.213.377.507.67.88.88.373.21.793.315 1.26.315z"/></defs><g fill="none" fill-rule="evenodd" opacity=".8"><use fill="#07155A" xlink:href="#a"/><use fill="#06163A" xlink:href="#a"/><g transform="translate(57 17)"><use fill="#07155A" xlink:href="#b"/><use fill="#06163A" xlink:href="#b"/></g><g transform="translate(57 17)"><use fill="#07155A" xlink:href="#c"/><use fill="#06163A" xlink:href="#c"/></g></g></svg>