<?xml version="1.0" encoding="iso-8859-1"?>
<!-- Generator: Adobe Illustrator 19.0.0, SVG Export Plug-In . SVG Version: 6.00 Build 0)  -->
<svg version="1.1" id="Capa_1" xmlns="http://www.w3.org/2000/svg" xmlns:xlink="http://www.w3.org/1999/xlink" x="0px" y="0px"
	 viewBox="0 0 512.482 512.482" style="enable-background:new 0 0 512.482 512.482;" xml:space="preserve">
<g>
	<g>
		<path d="M336.959,311.901h-96.194v-86.885c0-4.655-3.103-7.758-7.758-7.758s-7.758,3.103-7.758,7.758v135.758l-1.552-0.776
			l-50.424-92.315c-6.206-14.739-20.17-24.048-35.685-24.048H34.413c-4.655,0-7.758,3.103-7.758,7.758v71.37
			C11.14,325.865,0.28,339.829,0.28,356.12c0,38.788,0,69.042,0,110.158c0,4.655,3.103,7.758,7.758,7.758h19.394
			c1.552,20.945,19.394,38.012,41.891,38.012c21.721,0,39.564-17.067,41.891-38.012h27.151c2.327,21.721,20.17,38.012,41.891,38.012
			s39.564-17.067,41.891-38.012h10.861c4.655,0,7.758-3.879,7.758-7.758c0-77.576,0-60.509,0-138.861h96.194
			c4.655,0,7.758-3.103,7.758-7.758S341.613,311.901,336.959,311.901z M42.171,258.374h95.418v1.552
			c9.309,0,17.842,5.43,21.721,14.739c0,0,0,0.776,0.776,0.776l38.788,71.37l-0.776-0.776c-3.879-1.552-8.533-1.552-11.636,0.776
			c-3.879,2.327-5.43,6.206-5.43,10.085v17.842h-61.285v-38.012c0-8.533-6.982-15.515-15.515-15.515H42.171V258.374z
			 M69.322,496.532c-14.739,0-26.376-11.636-26.376-26.376c0-14.739,11.636-26.376,26.376-26.376s26.376,11.636,26.376,26.376
			C95.698,484.895,83.286,496.532,69.322,496.532z M180.256,496.532c-14.739,0-26.376-11.636-26.376-26.376
			c0-14.739,11.636-26.376,26.376-26.376s26.376,11.636,26.376,26.376C206.631,484.895,194.995,496.532,180.256,496.532z
			 M225.25,458.52h-5.43c-5.43-17.842-20.945-30.255-40.339-30.255c-19.394,0-35.685,13.188-40.339,30.255h-30.255
			c-5.43-17.842-20.945-30.255-40.339-30.255s-35.685,13.188-40.339,30.255H15.795V418.18H225.25V458.52z M226.025,402.665H15.795
			v-45.77c0-10.861,8.533-19.394,18.618-19.394h69.042v45.77c0,4.655,3.103,7.758,7.758,7.758h76.8c4.655,0,7.758-3.103,7.758-7.758
			v-20.17l30.255,16.291V402.665z"/>
	</g>
</g>
<g>
	<g>
		<path d="M509.177,170.714L260.934,1.598c-2.327-1.552-6.206-1.552-8.533,0L3.383,170.714c-3.103,1.552-3.879,5.43-3.103,8.533
			s3.879,5.43,7.758,5.43h4.655v44.218c0,4.655,3.103,7.758,7.758,7.758s7.758-3.103,7.758-7.758v-44.218h456.146v311.855H242.316
			c-4.655,0-7.758,3.103-7.758,7.758s3.103,7.758,7.758,7.758H492.11c4.655,0,7.758-3.103,7.758-7.758V184.677h4.655
			c3.103,0,6.206-2.327,7.758-5.43C513.056,176.144,511.504,172.265,509.177,170.714z M32.862,169.162L256.28,17.114
			l223.418,152.049H32.862z"/>
	</g>
</g>
<g>
	<g>
		<path d="M345.492,381.72h-80.679c-4.655,0-7.758,3.103-7.758,7.758v80.679c0,4.655,3.103,7.758,7.758,7.758h80.679
			c4.654,0,7.758-3.103,7.758-7.758v-80.679C353.25,384.823,349.371,381.72,345.492,381.72z M337.734,462.398h-65.164v-65.164
			h65.164V462.398z"/>
	</g>
</g>
<g>
	<g>
		<path d="M458.753,381.72h-80.679c-4.655,0-7.758,3.103-7.758,7.758v80.679c0,4.655,3.103,7.758,7.758,7.758h80.679
			c4.655,0,7.758-3.103,7.758-7.758v-80.679C466.51,384.823,463.407,381.72,458.753,381.72z M450.995,462.398h-65.164v-65.164
			h65.164V462.398z"/>
	</g>
</g>
<g>
	<g>
		<path d="M458.753,268.459h-80.679c-4.655,0-7.758,3.103-7.758,7.758v80.679c0,3.879,3.103,7.758,7.758,7.758h80.679
			c4.655,0,7.758-3.103,7.758-7.758v-80.679C466.51,271.562,463.407,268.459,458.753,268.459z M450.995,349.138h-65.164v-65.164
			h65.164V349.138z"/>
	</g>
</g>
<g>
	<g>
		<path d="M345.492,205.623h-80.679c-4.655,0-7.758,3.103-7.758,7.758v80.679c0,4.655,3.103,7.758,7.758,7.758h80.679
			c4.654,0,7.758-3.103,7.758-7.758V213.38C353.25,208.726,350.146,205.623,345.492,205.623z M337.734,285.526h-65.164v-65.164
			h65.164V285.526z"/>
	</g>
</g>
<g>
	<g>
		<path d="M257.831,55.901c-26.376,0-48.097,21.721-48.097,48.097c0,26.376,21.721,48.097,48.097,48.097
			c26.376,0,48.097-21.721,48.097-48.097C305.928,77.623,284.207,55.901,257.831,55.901z M257.831,136.58
			c-17.842,0-32.582-14.739-32.582-32.582c0-17.842,14.739-32.582,32.582-32.582s32.582,14.739,32.582,32.582
			C290.413,121.841,275.674,136.58,257.831,136.58z"/>
	</g>
</g>
<g>
</g>
<g>
</g>
<g>
</g>
<g>
</g>
<g>
</g>
<g>
</g>
<g>
</g>
<g>
</g>
<g>
</g>
<g>
</g>
<g>
</g>
<g>
</g>
<g>
</g>
<g>
</g>
<g>
</g>
</svg>
