<?xml version="1.0" encoding="iso-8859-1"?>
<!-- Generator: Adobe Illustrator 19.0.0, SVG Export Plug-In . SVG Version: 6.00 Build 0)  -->
<svg version="1.1" id="Capa_1" xmlns="http://www.w3.org/2000/svg" xmlns:xlink="http://www.w3.org/1999/xlink" x="0px" y="0px"
	 viewBox="0 0 496 496" style="enable-background:new 0 0 496 496;" xml:space="preserve">
<g>
	<g>
		<path d="M344,192c-13.864,0-27.232,2.024-40,5.52V96h16V48h-18.232l-16-48h-91.536l-16,48H0v48h16v144H0v80h16v128H0v48h344
			c83.816,0,152-68.184,152-152S427.816,192,344,192z M205.768,16h68.472l10.664,32h-89.8L205.768,16z M16,64h288v16h-32v16h16
			v106.824c-20.856,8.304-39.408,21.088-54.544,37.176H32V96h224V80H16V64z M16,256h204.296c-3.664,5.128-7.104,10.424-10.112,16
			H128v16h74.824c-2.072,5.2-3.816,10.544-5.304,16H16V256z M233.456,448H32V320h162.088c-1.256,7.84-2.088,15.816-2.088,24
			C192,384.24,207.832,420.784,233.456,448z M16,480v-16h235.048c7.912,6.144,16.432,11.496,25.48,16H16z M344,480
			c-74.992,0-136-61.008-136-136s61.008-136,136-136s136,61.008,136,136S418.992,480,344,480z"/>
	</g>
</g>
<g>
	<g>
		<path d="M344,320c-13.232,0-24,10.768-24,24s10.768,24,24,24s24-10.768,24-24S357.232,320,344,320z M344,352c-4.408,0-8-3.584-8-8
			c0-4.416,3.592-8,8-8c4.408,0,8,3.584,8,8C352,348.416,348.408,352,344,352z"/>
	</g>
</g>
<g>
	<g>
		<path d="M366.536,379.4l-13.08,9.2l34.76,49.448c-27.672,13.064-60.768,13.064-88.44,0l34.76-49.448l-13.088-9.2l-45.024,64.04
			l7.552,4.376C302.264,458.408,323.016,464,344,464s41.736-5.592,60.008-16.184l7.552-4.376L366.536,379.4z"/>
	</g>
</g>
<g>
	<g>
		<path d="M447.92,284c-10.488-18.168-25.704-33.336-44.016-43.88l-7.568-4.36l-32.952,71.008l14.512,6.736l25.44-54.832
			c12.576,8.728,23.104,20.112,30.728,33.32c7.632,13.216,12.232,28.024,13.496,43.264l-60.208-5.376l-1.424,15.936l77.976,6.96
			l0.008-8.736C463.944,322.936,458.416,302.168,447.92,284z"/>
	</g>
</g>
<g>
	<g>
		<path d="M284.664,258.68l25.44,54.832l14.512-6.736l-32.952-71.008l-7.568,4.36c-18.312,10.544-33.528,25.712-44.016,43.88
			c-10.488,18.168-16.016,38.936-15.992,60.056l0.008,8.736l77.976-6.96l-1.424-15.952l-60.208,5.376
			c1.264-15.24,5.864-30.048,13.488-43.264C261.56,278.792,272.088,267.408,284.664,258.68z"/>
	</g>
</g>
<g>
	<g>
		<rect x="48" y="112" width="136" height="16"/>
	</g>
</g>
<g>
	<g>
		<rect x="200" y="112" width="16" height="16"/>
	</g>
</g>
<g>
	<g>
		<rect x="32" y="272" width="16" height="16"/>
	</g>
</g>
<g>
	<g>
		<rect x="64" y="272" width="16" height="16"/>
	</g>
</g>
<g>
	<g>
		<rect x="96" y="272" width="16" height="16"/>
	</g>
</g>
<g>
</g>
<g>
</g>
<g>
</g>
<g>
</g>
<g>
</g>
<g>
</g>
<g>
</g>
<g>
</g>
<g>
</g>
<g>
</g>
<g>
</g>
<g>
</g>
<g>
</g>
<g>
</g>
<g>
</g>
</svg>
