<svg xmlns="http://www.w3.org/2000/svg" xmlns:xlink="http://www.w3.org/1999/xlink" width="97" height="51"><defs><path id="a" d="M.711 50a.3.3 0 0 1-.22-.091.3.3 0 0 1-.092-.221v-8.463a.33.33 0 0 1 .085-.234.295.295 0 0 1 .227-.091h1.053c.165 0 .295.082.39.247l2.51 4.654 2.508-4.654c.096-.165.226-.247.39-.247h1.04c.096 0 .174.03.234.091.061.06.091.139.091.234v8.463c0 .095-.03.171-.09.227a.33.33 0 0 1-.235.085H7.484a.3.3 0 0 1-.22-.091.3.3 0 0 1-.092-.221v-5.59L5.365 47.53c-.095.19-.238.286-.429.286H4.39c-.182 0-.329-.095-.442-.286l-1.807-3.432v5.59c0 .087-.028.16-.084.221a.295.295 0 0 1-.228.091H.711zm15.454.13c-1.187 0-2.11-.299-2.769-.897-.658-.598-1.005-1.486-1.04-2.665-.008-.251-.013-.62-.013-1.105 0-.494.005-.867.013-1.118.035-1.153.39-2.037 1.066-2.652.677-.615 1.59-.923 2.743-.923 1.145 0 2.057.308 2.737.923.68.615 1.038 1.5 1.072 2.652.018.503.026.875.026 1.118 0 .234-.008.602-.026 1.105-.034 1.179-.383 2.067-1.046 2.665-.663.598-1.584.897-2.763.897zm0-1.508c.581 0 1.04-.173 1.378-.52.339-.347.52-.88.546-1.599.018-.52.026-.871.026-1.053 0-.2-.008-.55-.026-1.053-.026-.71-.212-1.241-.559-1.593-.346-.35-.801-.526-1.365-.526-.572 0-1.03.175-1.378.526-.346.352-.528.882-.546 1.593-.008.251-.013.602-.013 1.053 0 .442.005.793.013 1.053.018.71.198 1.241.54 1.593.342.35.804.526 1.384.526zM23.702 50a.3.3 0 0 1-.22-.091.3.3 0 0 1-.092-.221v-8.463a.33.33 0 0 1 .085-.234.295.295 0 0 1 .227-.091h1.014c.165 0 .29.074.377.221l3.718 5.772v-5.668a.33.33 0 0 1 .085-.234.295.295 0 0 1 .227-.091h1.118c.096 0 .174.03.234.091.061.06.091.139.091.234v8.45a.32.32 0 0 1-.09.234.3.3 0 0 1-.222.091h-1.027a.424.424 0 0 1-.39-.221l-3.705-5.642v5.551c0 .087-.028.16-.084.221a.295.295 0 0 1-.228.091h-1.118zm14.09.13c-1.188 0-2.11-.299-2.77-.897-.658-.598-1.005-1.486-1.04-2.665-.008-.251-.013-.62-.013-1.105 0-.494.005-.867.014-1.118.034-1.153.39-2.037 1.066-2.652.676-.615 1.59-.923 2.742-.923 1.145 0 2.057.308 2.737.923.68.615 1.038 1.5 1.072 2.652.018.503.026.875.026 1.118 0 .234-.008.602-.026 1.105-.034 1.179-.383 2.067-1.046 2.665-.663.598-1.584.897-2.763.897zm0-1.508c.58 0 1.04-.173 1.377-.52.339-.347.52-.88.547-1.599.017-.52.026-.871.026-1.053 0-.2-.01-.55-.026-1.053-.027-.71-.213-1.241-.56-1.593-.346-.35-.801-.526-1.364-.526-.573 0-1.032.175-1.379.526-.346.352-.528.882-.545 1.593-.01.251-.014.602-.014 1.053 0 .442.005.793.014 1.053.017.71.197 1.241.539 1.593.342.35.804.526 1.385.526zm10.773 1.508c-1.196 0-2.125-.308-2.788-.923-.663-.615-1.016-1.473-1.06-2.574a39.41 39.41 0 0 1-.012-1.209c0-.555.004-.958.013-1.209.034-1.075.39-1.917 1.065-2.529.677-.61 1.604-.916 2.782-.916.798 0 1.485.136 2.061.41.576.273 1.012.61 1.306 1.014.295.403.451.799.468 1.189a.265.265 0 0 1-.078.195.281.281 0 0 1-.208.078H50.75c-.087 0-.152-.017-.196-.052a.444.444 0 0 1-.117-.169 1.811 1.811 0 0 0-.636-.819c-.304-.225-.715-.338-1.236-.338-.606 0-1.08.162-1.423.488-.342.325-.522.83-.54 1.514-.008.251-.012.633-.012 1.144 0 .503.004.884.012 1.144.018.702.2 1.22.547 1.553.346.334.823.501 1.43.501.615 0 1.109-.165 1.481-.494.373-.33.56-.823.56-1.482v-.403h-1.587a.3.3 0 0 1-.22-.091.3.3 0 0 1-.092-.221v-.715a.3.3 0 0 1 .092-.221.3.3 0 0 1 .22-.091h3.12c.096 0 .174.03.235.091a.3.3 0 0 1 .09.221v1.378c0 .72-.16 1.345-.48 1.878a3.16 3.16 0 0 1-1.365 1.229c-.59.286-1.279.429-2.068.429zm7.577-.13a.3.3 0 0 1-.222-.091.3.3 0 0 1-.09-.221v-8.463a.33.33 0 0 1 .084-.234.295.295 0 0 1 .227-.091h3.367c1.067 0 1.9.247 2.503.741.602.494.903 1.196.903 2.106 0 .633-.151 1.163-.455 1.593-.303.429-.727.738-1.274.929l1.886 3.315c.026.052.038.1.038.143a.254.254 0 0 1-.084.195.271.271 0 0 1-.188.078H61.64a.493.493 0 0 1-.325-.097.945.945 0 0 1-.207-.254l-1.664-3.081h-1.782v3.12a.3.3 0 0 1-.09.221.317.317 0 0 1-.235.091h-1.196zm3.327-4.914c.52 0 .91-.115 1.17-.344.26-.23.39-.566.39-1.008 0-.442-.13-.782-.39-1.02-.26-.239-.65-.358-1.17-.358h-1.806v2.73h1.806zM65.733 50a.265.265 0 0 1-.273-.273l.026-.117 3.12-8.385c.086-.217.242-.325.468-.325h1.43c.225 0 .38.108.468.325l3.12 8.385.026.117a.254.254 0 0 1-.085.195.271.271 0 0 1-.188.078h-1.157a.377.377 0 0 1-.377-.247l-.598-1.573h-3.848l-.598 1.573a.377.377 0 0 1-.377.247h-1.157zm2.587-3.328h2.938l-1.47-4.004-1.468 4.004zM77.326 50a.3.3 0 0 1-.221-.091.3.3 0 0 1-.091-.221v-8.463a.33.33 0 0 1 .084-.234.295.295 0 0 1 .228-.091h1.053c.164 0 .294.082.39.247l2.509 4.654 2.509-4.654c.095-.165.225-.247.39-.247h1.04c.095 0 .173.03.234.091.06.06.09.139.09.234v8.463c0 .095-.03.171-.09.227a.33.33 0 0 1-.234.085h-1.118a.3.3 0 0 1-.221-.091.3.3 0 0 1-.091-.221v-5.59L81.98 47.53c-.096.19-.239.286-.43.286h-.545c-.183 0-.33-.095-.442-.286l-1.807-3.432v5.59c0 .087-.029.16-.085.221a.295.295 0 0 1-.227.091h-1.118zm15.116.13c-.78 0-1.448-.117-2.002-.351-.555-.234-.975-.542-1.261-.923a2.181 2.181 0 0 1-.455-1.248c0-.07.025-.132.078-.188a.254.254 0 0 1 .195-.085h1.183c.095 0 .173.022.234.065a.69.69 0 0 1 .169.182c.086.295.283.542.591.741.308.2.73.299 1.268.299.606 0 1.063-.102 1.371-.306.308-.203.462-.483.462-.838a.794.794 0 0 0-.234-.585c-.157-.156-.393-.292-.709-.41a16.546 16.546 0 0 0-1.41-.422c-1.023-.243-1.773-.563-2.25-.962-.476-.399-.714-.97-.714-1.716 0-.503.138-.951.416-1.346.277-.394.673-.704 1.189-.929.516-.225 1.116-.338 1.8-.338.72 0 1.342.126 1.866.377s.923.565 1.196.943c.273.377.418.751.436 1.124 0 .07-.026.132-.078.189a.254.254 0 0 1-.195.084h-1.235c-.191 0-.321-.078-.39-.234-.044-.277-.213-.51-.507-.696-.295-.186-.66-.279-1.092-.279-.477 0-.852.091-1.125.273-.273.182-.41.446-.41.793 0 .234.07.429.209.585.138.156.355.292.65.41.294.117.723.249 1.287.396.77.173 1.384.368 1.839.585.455.217.79.49 1.008.819.216.33.325.75.325 1.261 0 .563-.154 1.05-.462 1.462-.308.412-.741.726-1.3.943-.559.217-1.207.325-1.943.325z"/><path id="b" d="M28.33 33.403h9.4L23.63.753h-9.4l14.1 32.65"/><path id="c" d="M9.436 33.403H.035L14.134.753h9.402l-14.1 32.65"/><path id="d" d="M56.671 33.403h9.402L51.973.753h-9.4l14.098 32.65"/><path id="e" d="M37.778 33.403h-9.4L42.48.753h9.4l-14.102 32.65"/><path id="f" d="M84.955 33.403h9.4L80.256.753h-9.402l14.102 32.65"/><path id="g" d="M66.058 33.403H56.66L70.759.753h9.4l-14.101 32.65"/></defs><g fill="none" fill-rule="evenodd" opacity=".8"><use fill="#07155A" xlink:href="#a"/><use fill="#06163A" xlink:href="#a"/><g transform="translate(1)"><use fill="#07155A" xlink:href="#b"/><use fill="#06163A" xlink:href="#b"/></g><g transform="translate(1)"><use fill="#07155A" xlink:href="#c"/><use fill="#06163A" xlink:href="#c"/></g><g transform="translate(1)"><use fill="#07155A" xlink:href="#d"/><use fill="#06163A" xlink:href="#d"/></g><g transform="translate(1)"><use fill="#07155A" xlink:href="#e"/><use fill="#06163A" xlink:href="#e"/></g><g transform="translate(1)"><use fill="#07155A" xlink:href="#f"/><use fill="#06163A" xlink:href="#f"/></g><g transform="translate(1)"><use fill="#07155A" xlink:href="#g"/><use fill="#06163A" xlink:href="#g"/></g></g></svg>