<svg xmlns="http://www.w3.org/2000/svg" xmlns:xlink="http://www.w3.org/1999/xlink" width="183" height="50"><defs><path id="a" d="M53.74 11.359L69.292 0 85.19 11.612l-15.898.01L40.49 32.658v16.44h-9.385V27.89l14.677-10.72-7.595-5.548L9.386 32.658v16.44H0V27.89L38.187 0 53.74 11.359z"/><path id="b" d="M69.16 41.7c.8.28 1.427.717 1.88 1.31.453.593.68 1.31.68 2.15 0 1.227-.493 2.173-1.48 2.84-.987.667-2.413 1-4.28 1H58.4V35h7.16c1.787 0 3.147.33 4.08.99.933.66 1.4 1.55 1.4 2.67 0 .667-.163 1.263-.49 1.79-.327.527-.79.943-1.39 1.25zm-6.84-3.84v2.7h2.72c1.333 0 2-.453 2-1.36 0-.893-.667-1.34-2-1.34h-2.72zm3.32 8.28c1.387 0 2.08-.473 2.08-1.42s-.693-1.42-2.08-1.42h-3.32v2.84h3.32zm11.58-6.68c.387-.493.89-.863 1.51-1.11.62-.247 1.33-.37 2.13-.37v3.42a7.769 7.769 0 0 0-.86-.06c-.813 0-1.45.22-1.91.66-.46.44-.69 1.113-.69 2.02V49h-3.8V38.16h3.62v1.3zm9.86-1.48c1.8 0 3.173.41 4.12 1.23.947.82 1.42 2.077 1.42 3.77V49h-3.54v-1.4c-.547 1.053-1.613 1.58-3.2 1.58-.84 0-1.567-.147-2.18-.44-.613-.293-1.077-.69-1.39-1.19-.313-.5-.47-1.07-.47-1.71 0-1.027.393-1.823 1.18-2.39.787-.567 2-.85 3.64-.85h2.16c-.067-1.147-.833-1.72-2.3-1.72-.52 0-1.047.083-1.58.25a4.21 4.21 0 0 0-1.36.69l-1.28-2.58c.6-.4 1.33-.71 2.19-.93.86-.22 1.723-.33 2.59-.33zm-.14 8.8c.44 0 .827-.107 1.16-.32.333-.213.573-.527.72-.94v-.94h-1.64c-1.107 0-1.66.367-1.66 1.1 0 .333.127.6.38.8.253.2.6.3 1.04.3zm15.14-8.8c1.347 0 2.43.4 3.25 1.2.82.8 1.23 2.007 1.23 3.62V49h-3.8v-5.58c0-1.48-.593-2.22-1.78-2.22-.653 0-1.177.213-1.57.64-.393.427-.59 1.067-.59 1.92V49h-3.8V38.16h3.62v1.18c.427-.44.933-.777 1.52-1.01a5.15 5.15 0 0 1 1.92-.35zm18.38-3.82V49h-3.62v-1.08c-.707.84-1.767 1.26-3.18 1.26-.987 0-1.887-.23-2.7-.69a4.99 4.99 0 0 1-1.93-1.97c-.473-.853-.71-1.84-.71-2.96 0-1.12.237-2.103.71-2.95a4.937 4.937 0 0 1 1.93-1.95c.813-.453 1.713-.68 2.7-.68 1.293 0 2.293.373 3 1.12v-4.94h3.8zm-6 12c.653 0 1.193-.23 1.62-.69.427-.46.64-1.097.64-1.91 0-.8-.21-1.427-.63-1.88-.42-.453-.963-.68-1.63-.68-.667 0-1.213.227-1.64.68-.427.453-.64 1.08-.64 1.88 0 .813.213 1.45.64 1.91.427.46.973.69 1.64.69zM136 35v14h-2.14l-7.72-9.48V49h-2.58V35h2.14l7.72 9.48V35H136zm7.6 3.2c1.573 0 2.777.377 3.61 1.13.833.753 1.25 1.89 1.25 3.41V49h-2.36v-1.3c-.307.467-.743.823-1.31 1.07-.567.247-1.25.37-2.05.37-.8 0-1.5-.137-2.1-.41-.6-.273-1.063-.653-1.39-1.14a2.893 2.893 0 0 1-.49-1.65c0-.96.357-1.73 1.07-2.31.713-.58 1.837-.87 3.37-.87h2.76v-.16c0-.747-.223-1.32-.67-1.72-.447-.4-1.11-.6-1.99-.6-.6 0-1.19.093-1.77.28-.58.187-1.07.447-1.47.78l-.98-1.82c.56-.427 1.233-.753 2.02-.98a8.988 8.988 0 0 1 2.5-.34zm-.34 9.12c.627 0 1.183-.143 1.67-.43a2.34 2.34 0 0 0 1.03-1.23v-1.24h-2.58c-1.44 0-2.16.473-2.16 1.42 0 .453.18.813.54 1.08.36.267.86.4 1.5.4zm21.88-9.12c1.347 0 2.413.39 3.2 1.17.787.78 1.18 1.95 1.18 3.51V49h-2.5v-5.8c0-.933-.207-1.637-.62-2.11-.413-.473-1.007-.71-1.78-.71-.84 0-1.513.277-2.02.83-.507.553-.76 1.343-.76 2.37V49h-2.5v-5.8c0-.933-.207-1.637-.62-2.11-.413-.473-1.007-.71-1.78-.71-.853 0-1.53.273-2.03.82-.5.547-.75 1.34-.75 2.38V49h-2.5V38.32h2.38v1.36c.4-.48.9-.847 1.5-1.1.6-.253 1.267-.38 2-.38.8 0 1.51.15 2.13.45.62.3 1.11.743 1.47 1.33a4.45 4.45 0 0 1 1.7-1.31c.693-.313 1.46-.47 2.3-.47zm17.62 5.52c0 .173-.013.42-.04.74h-8.38c.147.787.53 1.41 1.15 1.87.62.46 1.39.69 2.31.69 1.173 0 2.14-.387 2.9-1.16l1.34 1.54a4.515 4.515 0 0 1-1.82 1.3c-.733.293-1.56.44-2.48.44-1.173 0-2.207-.233-3.1-.7-.893-.467-1.583-1.117-2.07-1.95-.487-.833-.73-1.777-.73-2.83 0-1.04.237-1.977.71-2.81a5.036 5.036 0 0 1 1.97-1.95c.84-.467 1.787-.7 2.84-.7 1.04 0 1.97.23 2.79.69.82.46 1.46 1.107 1.92 1.94.46.833.69 1.797.69 2.89zm-5.4-3.52c-.8 0-1.477.237-2.03.71-.553.473-.89 1.103-1.01 1.89h6.06c-.107-.773-.433-1.4-.98-1.88-.547-.48-1.227-.72-2.04-.72z"/></defs><g fill="none" fill-rule="evenodd" opacity=".8"><g transform="translate(0 .5)"><use fill="#07155A" xlink:href="#a"/><use fill="#06163A" xlink:href="#a"/></g><g transform="translate(0 .5)"><use fill="#07155A" xlink:href="#b"/><use fill="#06163A" xlink:href="#b"/></g></g></svg>