<svg xmlns="http://www.w3.org/2000/svg" width="136" height="50"><path d="M36.345 49.714h18.173L36.345 0H18.173L0 49.714h9.086l-3.868-10.58 13.65-37.232 17.477 47.812M75.944 15.43c.72.252 1.284.645 1.692 1.179.408.534.612 1.179.612 1.935 0 1.104-.444 1.956-1.332 2.556-.888.6-2.172.9-3.852.9H66.26V9.4h6.444c1.608 0 2.832.297 3.672.891.84.594 1.26 1.395 1.26 2.403 0 .6-.147 1.137-.441 1.611a3.084 3.084 0 0 1-1.251 1.125zm-6.156-3.456v2.43h2.448c1.2 0 1.8-.408 1.8-1.224 0-.804-.6-1.206-1.8-1.206h-2.448zm2.988 7.452c1.248 0 1.872-.426 1.872-1.278 0-.852-.624-1.278-1.872-1.278h-2.988v2.556h2.988zm12.834-.774h-1.944V22h-3.564V9.4h5.76c1.14 0 2.13.189 2.97.567.84.378 1.488.918 1.944 1.62.456.702.684 1.527.684 2.475 0 .912-.213 1.707-.639 2.385-.426.678-1.035 1.209-1.827 1.593L91.712 22h-3.816l-2.286-3.348zm2.25-4.59c0-.588-.186-1.044-.558-1.368-.372-.324-.924-.486-1.656-.486h-1.98v3.69h1.98c.732 0 1.284-.159 1.656-.477.372-.318.558-.771.558-1.359zm14.004 5.49h-5.328L95.546 22H91.91l5.562-12.6h3.51l5.58 12.6h-3.708l-.99-2.448zm-1.044-2.628l-1.62-4.032-1.62 4.032h3.24zM119.558 9.4V22h-2.934l-5.562-6.714V22h-3.492V9.4h2.934l5.562 6.714V9.4h3.492zm2.52 0h5.958c1.38 0 2.604.258 3.672.774s1.896 1.248 2.484 2.196c.588.948.882 2.058.882 3.33 0 1.272-.294 2.382-.882 3.33-.588.948-1.416 1.68-2.484 2.196-1.068.516-2.292.774-3.672.774h-5.958V9.4zm5.814 9.756c1.08 0 1.947-.306 2.601-.918.654-.612.981-1.458.981-2.538 0-1.08-.327-1.926-.981-2.538-.654-.612-1.521-.918-2.601-.918h-2.25v6.912h2.25zM77.888 28.4V41h-1.926l-6.948-8.532V41h-2.322V28.4h1.926l6.948 8.532V28.4h2.322zm11.556 9.684h-6.3L81.902 41H79.49l5.67-12.6h2.304L93.152 41h-2.448l-1.26-2.916zm-.774-1.836l-2.376-5.508-2.358 5.508h4.734zM106.328 41l-.018-8.352-4.14 6.912h-1.044l-4.14-6.804V41h-2.232V28.4h1.926l5.004 8.352 4.914-8.352h1.926l.018 12.6h-2.214zm15.066-1.962V41h-9.45V28.4h9.198v1.962h-6.858v3.276h6.084v1.926h-6.084v3.474h7.11z" fill="#06163A" fill-rule="evenodd" opacity=".8"/></svg>